<?xml version="1.0" encoding="utf-8"?>
<!-- Generator: Adobe Illustrator 15.0.0, SVG Export Plug-In . SVG Version: 6.00 Build 0)  -->
<!DOCTYPE svg PUBLIC "-//W3C//DTD SVG 1.1//EN" "http://www.w3.org/Graphics/SVG/1.1/DTD/svg11.dtd">
<svg version="1.1" id="Layer_1" xmlns="http://www.w3.org/2000/svg" xmlns:xlink="http://www.w3.org/1999/xlink" x="0px" y="0px"
	 width="280px" height="280px" viewBox="0 0 280 280" enable-background="new 0 0 280 280" xml:space="preserve">
<path fill="#4583C4" d="M279.351,245.114c0,18.907-15.329,34.236-34.236,34.236H34.887c-18.908,0-34.237-15.329-34.237-34.236
	V34.887c0-18.908,15.33-34.237,34.237-34.237h210.228c18.907,0,34.236,15.33,34.236,34.237V245.114z"/>
<path fill="#FFFFFF" d="M245.5,233.015c0,6.896-5.59,12.485-12.485,12.485H46.985c-6.895,0-12.485-5.59-12.485-12.485V46.985
	c0-6.896,5.59-12.485,12.485-12.485h186.029c6.896,0,12.485,5.59,12.485,12.485V233.015z"/>
<polygon fill="#4583C4" points="211.295,86.181 181.366,69.021 127.479,163.001 85.269,138.798 68.108,168.727 140.247,210.09 "/>
</svg>
